#!OML:ASF H:\BabyWalks\Project 1\Capture day 1\Session 1\baby.ASF
:FULLY-SPECIFIED
:DEGREES
768
root 35.5538 17.1386 2.72285 337.091 103.226 330.884
lowerback 21.9381 -3.16585 -3.25291
upperback 5.65778 -4.31452 0.623226
thorax -5.72763 -1.87642 3.62533
lowerneck -1.17994 -1.12525 3.69476
upperneck -16.9459 -1.75807 -5.69409
head -4.95847 -0.559087 -2.33843
rclavicle -3.39922e-014 -1.98785e-014
rhumerus -37.5648 15.5429 -77.2953
rradius 57.5433
rwrist -11.4703
rhand -20.1632 -16.6969
rfingers 7.12502
rthumb 6.18229 -46.5867
lclavicle -3.39922e-014 -1.98785e-014
lhumerus -15.0686 -29.5933 76.6356
lradius 72.5464
lwrist 2.51396
lhand -2.25482 2.65932
lfingers 7.12502
lthumb 23.429 31.253
rfemur -33.1233 7.17691 10.4542
rtibia 42.2459
rfoot -14.2914 0.0238283
rtoes 0.664111
lfemur 0.510911 -11.8973 -17.006
ltibia 28.6932
lfoot -18.948 -24.8926
ltoes -6.82649
769
root 35.6317 17.159 2.72245 336.264 102.94 329.901
lowerback 21.8435 -3.17846 -3.16299
upperback 5.64142 -4.3075 0.706092
thorax -5.69771 -1.87665 3.65683
lowerneck -1.23971 -0.954758 3.84899
upperneck -17.0038 -1.58393 -6.17018
head -4.9594 -0.452479 -2.52178
rclavicle -2.76311e-014 1.19271e-014
rhumerus -37.4239 15.682 -77.2242
rradius 58.4062
rwrist -11.911
rhand -19.5561 -16.841
rfingers 7.12502
rthumb 6.7683 -46.7128
lclavicle -2.76311e-014 1.19271e-014
lhumerus -16.4851 -29.3076 77.3639
lradius 71.8981
lwrist 2.72081
lhand -2.21622 2.88565
lfingers 7.12502
lthumb 23.466 31.4746
rfemur -32.9236 7.37259 10.4599
rtibia 42.0236
rfoot -14.5128 0.390465
rtoes 1.30548
lfemur 0.545736 -11.7957 -17.0583
ltibia 28.7291
lfoot -17.8696 -25.1048
ltoes -7.10762
770
root 35.7094 17.1789 2.72176 335.36 102.688 328.891
lowerback 21.791 -3.19071 -3.08022
upperback 5.62662 -4.3015 0.789358
thorax -5.687 -1.87614 3.69566
lowerneck -1.28162 -0.791805 3.97121
upperneck -17.0649 -1.42037 -6.64159
head -4.96327 -0.348977 -2.69808
rclavicle 5.36719e-014 -3.18055e-014
rhumerus -37.2919 15.7885 -77.1511
rradius 59.1723
rwrist -12.1784
rhand -18.9467 -16.9305
rfingers 7.12502
rthumb 7.35658 -46.7826
lclavicle 5.36719e-014 -3.18055e-014
lhumerus -17.9049 -28.9208 78.1321
lradius 71.1625
lwrist 2.88973
lhand -2.22371 3.14383
lfingers 7.12502
lthumb 23.4588 31.7337
rfemur -32.6758 7.54797 10.4617
rtibia 41.8181
rfoot -14.7364 0.737075
rtoes 1.89445
lfemur 0.536394 -11.6981 -17.1015
ltibia 28.8856
lfoot -16.678 -25.4534
ltoes -7.45698
771
root 35.7871 17.1978 2.72065 334.418 102.467 327.889
lowerback 21.7742 -3.20244 -2.99799
upperback 5.61239 -4.29474 0.874117
thorax -5.69393 -1.87425 3.7385
lowerneck -1.30331 -0.638569 4.06377
upperneck -17.1277 -1.26994 -7.10577
head -4.97049 -0.25007 -2.86685
rclavicle -5.04913e-014 9.54166e-015
rhumerus -37.1735 15.8668 -77.079
rradius 59.8374
rwrist -12.2894
rhand -18.341 -16.9629
rfingers 7.12502
rthumb 7.9412 -46.7938
lclavicle -5.04913e-014 9.54166e-015
lhumerus -19.3178 -28.4421 78.9267
lradius 70.3453
lwrist 3.00769
lhand -2.27187 3.43592
lfingers 7.12502
lthumb 23.4126 32.0317
rfemur -32.3785 7.7005 10.4673
rtibia 41.6259
rfoot -14.9531 1.06132
rtoes 2.45422
lfemur 0.476765 -11.608 -17.1274
ltibia 29.1678
lfoot -15.3714 -25.9294
ltoes -7.90093
772
root 35.8648 17.2159 2.71917 333.482 102.269 326.932
lowerback 21.7876 -3.21209 -2.90964
upperback 5.59688 -4.28381 0.960268
thorax -5.71858 -1.86948 3.78038
lowerneck -1.31577 -0.496171 4.13601
upperneck -17.186 -1.13332 -7.55942
head -4.97753 -0.157114 -3.02855
rclavicle -7.79236e-014 2.94201e-014
rhumerus -37.0699 15.9085 -77.0132
rradius 60.4
rwrist -12.2584
rhand -17.7464 -16.9435
rfingers 7.12502
rthumb 8.51507 -46.7518
lclavicle -7.79236e-014 2.94201e-014
lhumerus -20.7105 -27.8842 79.7308
lradius 69.4494
lwrist 3.06108
lhand -2.3588 3.77048
lfingers 7.12502
lthumb 23.3292 32.3769
rfemur -32.0408 7.83264 10.4864
rtibia 41.443
rfoot -15.1635 1.35449
rtoes 2.93036
lfemur 0.357334 -11.5234 -17.1252
ltibia 29.5782
lfoot -13.9451 -26.5205
ltoes -8.41474
773
root 35.9425 17.2332 2.71747 332.614 102.084 326.081
lowerback 21.8257 -3.21959 -2.80315
upperback 5.57834 -4.26603 1.04857
thorax -5.76102 -1.86075 3.81439
lowerneck -1.31901 -0.364802 4.19079
upperneck -17.2338 -1.00949 -7.99398
head -4.98282 -0.0705139 -3.18087
rclavicle 6.32135e-014 4.77083e-015
rhumerus -36.9867 15.9149 -76.9585
rradius 60.8608
rwrist -12.0977
rhand -17.1675 -16.8885
rfingers 7.12502
rthumb 9.07371 -46.6733
lclavicle 6.32135e-014 4.77083e-015
lhumerus -22.0785 -27.2603 80.5306
lradius 68.4772
lwrist 3.03499
lhand -2.48387 4.14137
lfingers 7.12502
lthumb 23.2092 32.7629
rfemur -31.6659 7.9491 10.5346
rtibia 41.2623
rfoot -15.3707 1.61102
rtoes 3.30158
lfemur 0.170151 -11.4412 -17.0796
ltibia 30.1229
lfoot -12.4013 -27.2098
ltoes -8.95432
774
root 36.0203 17.2496 2.71546 331.854 101.901 325.364
lowerback 21.8724 -3.22425 -2.67035
upperback 5.56051 -4.23836 1.1376
thorax -5.80997 -1.8471 3.83235
lowerneck -1.32704 -0.243976 4.24066
upperneck -17.2691 -0.897421 -8.41108
head -4.98351 0.00930109 -3.3264
rclavicle -1.27222e-014 1.59028e-015
rhumerus -36.9196 15.8874 -76.9195
rradius 61.2198
rwrist -11.8286
rhand -16.6188 -16.7982
rfingers 7.12502
rthumb 9.60314 -46.5593
lclavicle -1.27222e-014 1.59028e-015
lhumerus -23.4053 -26.5802 81.3047
lradius 67.434
lwrist 2.92482
lhand -2.6433 4.53709
lfingers 7.12502
lthumb 23.0563 33.1778
rfemur -31.259 8.05613 10.6182
rtibia 41.0759
rfoot -15.5738 1.83348
rtoes 3.58783
lfemur -0.0933498 -11.3585 -16.9835
ltibia 30.8055
lfoot -10.7288 -27.9775
ltoes -9.40137
775
root 36.0983 17.2649 2.71326 331.223 101.711 324.797
lowerback 21.923 -3.22416 -2.50603
upperback 5.54113 -4.19743 1.22637
thorax -5.86612 -1.82706 3.82916
lowerneck -1.34511 -0.132752 4.28979
upperneck -17.2896 -0.794904 -8.8058
head -4.97801 0.0826229 -3.46426
rclavicle 2.38542e-014 3.81667e-014
rhumerus -36.8749 15.8296 -76.9007
rradius 61.4809
rwrist -11.4687
rhand -16.1135 -16.6994
rfingers 7.12502
rthumb 10.0906 -46.4375
lclavicle 2.38542e-014 3.81667e-014
lhumerus -24.6898 -25.8502 82.0427
lradius 66.3274
lwrist 2.72523
lhand -2.81803 4.95186
lfingers 7.12502
lthumb 22.8886 33.6135
rfemur -30.8247 8.16011 10.743
rtibia 40.8751
rfoot -15.7639 2.02881
rtoes 3.81842
lfemur -0.438426 -11.2689 -16.8322
ltibia 31.6311
lfoot -8.96608 -28.7901
ltoes -9.72182
776
root 36.1765 17.2796 2.71102 330.788 101.505 324.435
lowerback 21.9651 -3.22054 -2.29365
upperback 5.52193 -4.14113 1.31303
thorax -5.92267 -1.80007 3.79193
lowerneck -1.38055 -0.032548 4.34795
upperneck -17.2975 -0.703535 -9.17854
head -4.96602 0.147968 -3.59611
rclavicle -2.26615e-014 3.97569e-015
rhumerus -36.8533 15.7349 -76.9059
rradius 61.6548
rwrist -11.0413
rhand -15.6548 -16.6094
rfingers 7.12502
rthumb 10.5332 -46.3255
lclavicle -2.26615e-014 3.97569e-015
lhumerus -25.9205 -25.0859 82.7254
lradius 65.1593
lwrist 2.44285
lhand -3.00274 5.36445
lfingers 7.12502
lthumb 22.7113 34.0479
rfemur -30.3722 8.26196 10.922
rtibia 40.6521
rfoot -15.9474 2.19277
rtoes 3.96217
lfemur -0.874274 -11.1659 -16.6138
ltibia 32.6009
lfoot -7.15406 -29.6156
ltoes -9.8591
777
root 36.2549 17.2939 2.70876 330.557 101.276 324.284
lowerback 21.9925 -3.21153 -2.03201
upperback 5.50197 -4.06696 1.3976
thorax -5.97743 -1.76513 3.71894
lowerneck -1.42054 0.0549559 4.41205
upperneck -17.3054 -0.62532 -9.52386
head -4.95385 0.204729 -3.71988
rclavicle -1.31198e-014 1.51076e-014
rhumerus -36.8601 15.6024 -76.9356
rradius 61.7443
rwrist -10.5584
rhand -15.2583 -16.5267
rfingers 7.12502
rthumb 10.9157 -46.223
lclavicle -1.31198e-014 1.51076e-014
lhumerus -27.1031 -24.2846 83.3483
lradius 63.9436
lwrist 2.07896
lhand -3.18024 5.76099
lfingers 7.12502
lthumb 22.541 34.4652
rfemur -29.9037 8.37 11.1558
rtibia 40.4006
rfoot -16.1127 2.33327
rtoes 4.08225
lfemur -1.39966 -11.0432 -16.3291
ltibia 33.714
lfoot -5.33356 -30.4214
ltoes -9.69098
778
root 36.3334 17.3079 2.7065 330.535 101.024 324.344
lowerback 22.0047 -3.19852 -1.72361
upperback 5.48183 -3.9773 1.47947
thorax -6.02879 -1.72345 3.61138
lowerneck -1.46621 0.13122 4.4788
upperneck -17.3185 -0.558211 -9.83924
head -4.94294 0.254133 -3.83436
rclavicle 1.15295e-014 -1.51076e-014
rhumerus -36.8919 15.4402 -76.9855
rradius 61.7534
rwrist -10.0409
rhand -14.934 -16.4511
rfingers 7.12502
rthumb 11.2284 -46.1307
lclavicle 1.15295e-014 -1.51076e-014
lhumerus -28.2344 -23.4394 83.9014
lradius 62.6869
lwrist 1.64103
lhand -3.32022 6.12877
lfingers 7.12502
lthumb 22.4066 34.8492
rfemur -29.4193 8.48522 11.4427
rtibia 40.1172
rfoot -16.2563 2.45161
rtoes 4.16882
lfemur -2.00885 -10.897 -15.9846
ltibia 34.9649
lfoot -3.58153 -31.1674
ltoes -9.1892
779
root 36.4121 17.3217 2.70413 330.736 100.748 324.627
lowerback 21.9937 -3.18141 -1.36709
upperback 5.4627 -3.87188 1.55885
thorax -6.07098 -1.6751 3.4681
lowerneck -1.50867 0.193961 4.5423
upperneck -17.3466 -0.505238 -10.1193
head -4.93818 0.295225 -3.93701
rclavicle -4.69132e-014 3.33958e-014
rhumerus -36.9455 15.2472 -77.0516
rradius 61.6854
rwrist -9.50418
rhand -14.6805 -16.3838
rfingers 7.12502
rthumb 11.4729 -46.0498
lclavicle -4.69132e-014 3.33958e-014
lhumerus -29.3151 -22.5559 84.3796
lradius 61.395
lwrist 1.1426
lhand -3.42253 6.44834
lfingers 7.12502
lthumb 22.3084 35.1806
rfemur -28.9236 8.6116 11.7812
rtibia 39.8005
rfoot -16.371 2.54749
rtoes 4.23341
lfemur -2.69794 -10.7221 -15.5845
ltibia 36.3446
lfoot -2.04767 -31.7946
ltoes -8.5408
780
root 36.4907 17.3354 2.70176 331.163 100.45 325.131
lowerback 21.9607 -3.16046 -0.973733
upperback 5.44503 -3.75351 1.63823
thorax -6.10238 -1.62134 3.29896
lowerneck -1.55364 0.247123 4.59633
upperneck -17.3879 -0.461001 -10.3626
head -4.9378 0.330844 -4.02636
rclavicle 5.725e-014 -7.23576e-014
rhumerus -37.013 15.0264 -77.1292
rradius 61.5437
rwrist -8.96137
rhand -14.4854 -16.3238
rfingers 7.12502
rthumb 11.6611 -45.9792
lclavicle 5.725e-014 -7.23576e-014
lhumerus -30.3479 -21.6205 84.7801
lradius 60.0851
lwrist 0.596208
lhand -3.47121 6.73333
lfingers 7.12502
lthumb 22.2617 35.4711
rfemur -28.4222 8.75541 12.1657
rtibia 39.4525
rfoot -16.4606 2.6165
rtoes 4.28981
lfemur -3.46133 -10.5084 -15.1351
ltibia 37.8367
lfoot -0.894715 -32.26
ltoes -7.95126
781
root 36.5691 17.3488 2.6989 331.808 100.134 325.855
lowerback 21.9109 -3.13749 -0.546473
upperback 5.42943 -3.62537 1.71678
thorax -6.12426 -1.56352 3.10594
lowerneck -1.59443 0.290045 4.63857
upperneck -17.4443 -0.426787 -10.5696
head -4.9437 0.360714 -4.10225
rclavicle 3.10104e-014 -3.97569e-015
rhumerus -37.0926 14.7869 -77.2169
rradius 61.3281
rwrist -8.43152
rhand -14.3496 -16.273
rfingers 7.12502
rthumb 11.792 -45.921
lclavicle 3.10104e-014 -3.97569e-015
lhumerus -31.3363 -20.639 85.1035
lradius 58.7618
lwrist 0.0364297
lhand -3.46717 6.98021
lfingers 7.12502
lthumb 22.2655 35.7176
rfemur -27.9074 8.91315 12.5899
rtibia 39.0762
rfoot -16.5283 2.66298
rtoes 4.35392
lfemur -4.28109 -10.2502 -14.6497
ltibia 39.4203
lfoot -0.258017 -32.5267
ltoes -7.66145
